<?xml version="1.0" encoding="UTF-8"?>
<svg width="20px" height="20px" viewBox="0 0 20 20" version="1.1" xmlns="http://www.w3.org/2000/svg" xmlns:xlink="http://www.w3.org/1999/xlink">
    <!-- Generator: sketchtool 53 (72520) - https://sketchapp.com -->
    <title>F62626ED-2EBE-4DF0-B2D8-35FA791E996E</title>
    <desc>Created with sketchtool.</desc>
    <g id="Page-1" stroke="none" stroke-width="1" fill="none" fill-rule="evenodd">
        <g id="01-Menu" transform="translate(-128.000000, -55.000000)" fill="#CB9C69" fill-rule="nonzero">
            <path d="M138,75 C132.477539,75 128,70.5224609 128,65 C128,59.4775391 132.477539,55 138,55 C143.522461,55 148,59.4775391 148,65 C148,70.5224609 143.522461,75 138,75 Z M138,57.5 C133.858164,57.5 130.5,60.8581641 130.5,65 C130.5,69.1418359 133.858164,72.5 138,72.5 C142.141797,72.5 145.5,69.1418359 145.5,65 C145.5,60.8581641 142.141836,57.5 138,57.5 Z M141.675547,69.5080469 L141.45582,69.6362109 L140.821055,70.023125 L140.446289,70.2953906 C140.167969,70.4283984 139.877461,70.5334375 139.577148,70.6225391 L139.577148,70.2539062 L139.470898,69.4055078 C139.470898,69.4055078 139.418398,68.9160156 139.339063,68.7878516 C139.259766,68.6584766 139.074219,68.4777734 138.888672,68.4008984 C138.703125,68.3240234 138.571289,68.3239844 138.465039,68.1958203 C138.358828,68.0664453 138.279492,67.8344922 138.147656,67.6294141 C138.014648,67.4231641 137.855898,67.2168359 137.855898,67.1142578 C137.855898,67.0116797 137.855898,65.9558203 137.855898,65.9558203 L137.988945,64.9780469 L138.279492,64.7717578 L138.623711,64.3860156 L138.861758,64.3091016 L139.68207,64.4629297 L140.264336,64.4629297 L140.503594,64.9524219 L141.059023,65.3894531 L141.403242,65.9302734 L141.852461,66.0841016 L142.355469,66.0841016 L142.699688,66.4966797 L142.912109,66.9337109 L142.991406,67.2425391 L142.991406,67.7576953 L142.936523,68.0616406 C142.60082,68.6120703 142.174805,69.0966797 141.675547,69.5080469 Z M139.629648,60.6274219 L139.047383,60.93625 L138.836211,61.5282812 L138.491992,61.8371094 L137.353086,61.8371094 L136.824531,62.0433984 L136.797656,62.4547656 L136.586484,62.7892188 L136.532773,63.1505469 L136.638984,63.459375 L136.77082,63.7682031 C136.77082,63.7682031 137.089414,64.1283203 136.77082,64.3858594 C136.77082,64.3858594 136.374141,64.3858594 136.294727,64.2564844 C136.215391,64.1283203 135.633086,63.7682031 135.526914,63.6644531 C135.421914,63.5619141 135.077695,63.459375 135.077695,63.459375 L134.654102,63.3043359 L134.257383,63.2787109 L134.283008,62.7379297 L134.257383,62.2752734 L134.097461,61.9408203 L133.648242,61.6051172 L133.621367,61.245 L133.676289,61.0448047 C134.748086,60.0084375 136.225117,59.3663281 137.855977,59.3663281 C138.776367,59.3663281 139.636992,59.5872656 140.41457,59.9510547 L140.397461,60.0865625 L139.629648,60.6274219 Z" id="LANGUAGE"></path>
        </g>
    </g>
</svg>